G75*
G70*
%OFA0B0*%
%FSLAX24Y24*%
%IPPOS*%
%LPD*%
%AMOC8*
5,1,8,0,0,1.08239X$1,22.5*
%
%ADD10OC8,0.1250*%
%ADD11R,0.0436X0.0436*%
%ADD12C,0.0400*%
D10*
X006860Y001517D03*
X007189Y005847D03*
X005274Y006432D03*
X003457Y006432D03*
X001614Y006393D03*
D11*
X002553Y005650D03*
X003238Y003682D03*
X002057Y002107D03*
X001270Y001241D03*
X004971Y001162D03*
X006073Y005493D03*
D12*
X001270Y001241D02*
X001270Y001162D01*
X004971Y001162D01*
X005935Y001353D02*
X002549Y001353D01*
X002615Y001380D01*
X002784Y001549D01*
X002875Y001770D01*
X002875Y001907D01*
X003101Y002267D01*
X003610Y002878D01*
X003796Y002955D01*
X003965Y003124D01*
X004056Y003344D01*
X004056Y004019D01*
X003965Y004240D01*
X003796Y004409D01*
X003576Y004500D01*
X002901Y004500D01*
X002680Y004409D01*
X002512Y004240D01*
X002420Y004019D01*
X002420Y003950D01*
X001902Y003328D01*
X001857Y003296D01*
X001802Y003207D01*
X001735Y003127D01*
X001718Y003073D01*
X001592Y002872D01*
X001499Y002834D01*
X001464Y002798D01*
X001447Y005468D01*
X001614Y005468D01*
X001614Y006392D01*
X001615Y006392D01*
X001615Y005468D01*
X001998Y005468D01*
X002343Y005813D01*
X002950Y005207D01*
X003964Y005207D01*
X004365Y005608D01*
X004766Y005207D01*
X005781Y005207D01*
X005964Y005390D01*
X005964Y005340D01*
X006682Y004622D01*
X007624Y004622D01*
X007621Y002064D01*
X007244Y002441D01*
X006861Y002441D01*
X006861Y001517D01*
X006860Y001517D01*
X006860Y002441D01*
X006477Y002441D01*
X005935Y001900D01*
X005935Y001517D01*
X006860Y001517D01*
X006860Y001516D01*
X005935Y001516D01*
X005935Y001353D01*
X005935Y001585D02*
X002799Y001585D01*
X002923Y001984D02*
X006019Y001984D01*
X006418Y002382D02*
X003197Y002382D01*
X003529Y002781D02*
X007622Y002781D01*
X007622Y003179D02*
X003988Y003179D01*
X004056Y003578D02*
X007623Y003578D01*
X007624Y003976D02*
X004056Y003976D01*
X003830Y004375D02*
X007624Y004375D01*
X006531Y004773D02*
X001452Y004773D01*
X001454Y004375D02*
X002647Y004375D01*
X002420Y003976D02*
X001456Y003976D01*
X001459Y003578D02*
X002110Y003578D01*
X001778Y003179D02*
X001461Y003179D01*
X002451Y002737D02*
X002057Y002107D01*
X002451Y002737D02*
X003238Y003682D01*
X001449Y005172D02*
X006132Y005172D01*
X006073Y005493D02*
X002238Y005493D01*
X002553Y005650D01*
X002586Y005570D02*
X002100Y005570D01*
X002238Y005493D02*
X001270Y005493D01*
X001270Y001241D01*
X006860Y001585D02*
X006861Y001585D01*
X006860Y001984D02*
X006861Y001984D01*
X006860Y002382D02*
X006861Y002382D01*
X007303Y002382D02*
X007621Y002382D01*
X004403Y005570D02*
X004328Y005570D01*
X001615Y005570D02*
X001614Y005570D01*
X001614Y005969D02*
X001615Y005969D01*
X001614Y006367D02*
X001615Y006367D01*
M02*
