G75*
G70*
%OFA0B0*%
%FSLAX24Y24*%
%IPPOS*%
%LPD*%
%AMOC8*
5,1,8,0,0,1.08239X$1,22.5*
%
%ADD10C,0.0000*%
%ADD11R,0.0551X0.0394*%
%ADD12R,0.0394X0.0551*%
%ADD13R,0.0710X0.0630*%
%ADD14R,0.0630X0.0710*%
%ADD15R,0.0630X0.0709*%
%ADD16R,0.0709X0.0630*%
%ADD17OC8,0.1250*%
%ADD18R,0.0591X0.0827*%
%ADD19C,0.0240*%
%ADD20C,0.0197*%
%ADD21C,0.0400*%
%ADD22R,0.0436X0.0436*%
%ADD23C,0.0160*%
D10*
X001252Y000753D02*
X007128Y000753D01*
X007194Y000755D01*
X007260Y000761D01*
X007325Y000771D01*
X007389Y000785D01*
X007453Y000802D01*
X007515Y000824D01*
X007576Y000849D01*
X007635Y000878D01*
X007693Y000910D01*
X007748Y000946D01*
X007801Y000985D01*
X007852Y001027D01*
X007900Y001072D01*
X007945Y001120D01*
X007987Y001171D01*
X008026Y001224D01*
X008062Y001279D01*
X008095Y001337D01*
X008123Y001396D01*
X008149Y001457D01*
X008170Y001519D01*
X008188Y001583D01*
X008202Y001647D01*
X008212Y001712D01*
X008218Y001778D01*
X008220Y001844D01*
X008220Y001843D02*
X008226Y005328D01*
X008224Y005417D01*
X008218Y005505D01*
X008207Y005594D01*
X008193Y005681D01*
X008174Y005768D01*
X008151Y005854D01*
X008124Y005938D01*
X008093Y006021D01*
X008058Y006103D01*
X008020Y006183D01*
X007977Y006261D01*
X007931Y006336D01*
X007881Y006410D01*
X007828Y006481D01*
X007771Y006549D01*
X007712Y006615D01*
X007649Y006678D01*
X007583Y006737D01*
X007515Y006794D01*
X007444Y006847D01*
X007370Y006897D01*
X007294Y006943D01*
X007216Y006985D01*
X007136Y007024D01*
X007055Y007059D01*
X006972Y007090D01*
X006887Y007117D01*
X006801Y007139D01*
X006715Y007158D01*
X006627Y007173D01*
X006539Y007183D01*
X006450Y007189D01*
X006362Y007191D01*
X006361Y007191D02*
X001294Y007192D01*
X001254Y007190D01*
X001215Y007185D01*
X001176Y007176D01*
X001138Y007164D01*
X001101Y007149D01*
X001066Y007131D01*
X001032Y007109D01*
X001001Y007085D01*
X000971Y007058D01*
X000945Y007028D01*
X000920Y006997D01*
X000899Y006963D01*
X000881Y006928D01*
X000866Y006891D01*
X000854Y006853D01*
X000846Y006814D01*
X000841Y006774D01*
X000839Y006734D01*
X000840Y006735D02*
X000874Y001126D01*
X000874Y001127D02*
X000876Y001090D01*
X000882Y001053D01*
X000891Y001018D01*
X000903Y000983D01*
X000919Y000950D01*
X000939Y000918D01*
X000961Y000889D01*
X000986Y000862D01*
X001013Y000837D01*
X001043Y000815D01*
X001075Y000796D01*
X001108Y000781D01*
X001143Y000769D01*
X001179Y000760D01*
X001215Y000755D01*
X001252Y000753D01*
D11*
X003030Y002394D03*
X002164Y002769D03*
X003030Y003143D03*
X003857Y002871D03*
X004723Y003245D03*
X003857Y003619D03*
D12*
X003664Y002048D03*
X004412Y002048D03*
X004038Y001182D03*
D13*
X005681Y001199D03*
X005681Y002319D03*
X005561Y003252D03*
X005561Y004372D03*
X001317Y004232D03*
X001333Y003309D03*
X001333Y002189D03*
X001317Y005352D03*
D14*
X004147Y005351D03*
X005267Y005351D03*
X003003Y001312D03*
X001883Y001312D03*
D15*
X003258Y004446D03*
X004360Y004446D03*
X006561Y002631D03*
X007664Y002631D03*
D16*
X002317Y003926D03*
X002317Y005028D03*
D17*
X001614Y006393D03*
X003457Y006432D03*
X005274Y006432D03*
X007189Y005847D03*
X006860Y001517D03*
D18*
X006388Y003682D03*
X006388Y004706D03*
X007805Y004706D03*
X007805Y003682D03*
D19*
X005561Y004372D02*
X005325Y003839D01*
X004026Y003839D01*
X003868Y003619D01*
X003857Y003619D01*
X003857Y003143D02*
X003030Y003143D01*
X003857Y002871D02*
X004223Y002871D01*
X004223Y002146D01*
X004490Y002146D01*
X001317Y005352D02*
X001216Y005454D01*
D20*
X001317Y004241D02*
X001317Y004232D01*
X001333Y004232D01*
X003857Y003143D02*
X003857Y002871D01*
X005561Y003245D02*
X005561Y003252D01*
X005561Y003379D01*
D21*
X005561Y003245D02*
X004723Y003245D01*
X005288Y003252D02*
X005288Y002631D01*
X005681Y002319D01*
X005288Y002631D02*
X006561Y002631D01*
X007664Y002631D02*
X007664Y002580D01*
X007884Y002580D01*
X007805Y003682D01*
X007805Y004706D01*
X007490Y005296D01*
X007189Y005847D01*
X006467Y005020D02*
X006309Y005178D01*
X006073Y005493D01*
X006467Y005020D02*
X006388Y003682D01*
X006388Y004706D01*
X005561Y004372D02*
X005267Y004529D01*
X005267Y005351D01*
X005267Y006038D01*
X005274Y006432D01*
X004360Y005351D02*
X004147Y005351D01*
X004360Y005351D02*
X004360Y004446D01*
X003258Y004446D02*
X003238Y004209D01*
X003238Y003682D01*
X003258Y004446D02*
X003258Y006038D01*
X003457Y006432D01*
X002553Y005650D02*
X002317Y005028D01*
X002317Y005020D01*
X001270Y005020D01*
X001270Y005343D01*
X001317Y005343D01*
X001317Y005352D02*
X001317Y006235D01*
X001614Y006393D01*
X001317Y004241D02*
X002317Y003926D01*
X001691Y003309D02*
X002164Y002769D01*
X001691Y003309D02*
X001333Y003309D01*
X001333Y004232D01*
X003030Y002394D02*
X003081Y002394D01*
X002766Y002107D01*
X002057Y002107D01*
X001254Y002107D01*
X001333Y002189D01*
X001270Y001312D02*
X001270Y001241D01*
X001270Y001312D02*
X001883Y001312D01*
X003006Y001312D02*
X003664Y002048D01*
X004412Y002048D02*
X004490Y002146D01*
X004577Y001182D02*
X004038Y001182D01*
X004577Y001182D02*
X004971Y001162D01*
X005209Y001182D02*
X004577Y001182D01*
X005288Y001162D02*
X005681Y001199D01*
X006231Y001199D01*
X006860Y001517D01*
D22*
X004971Y001162D03*
X002057Y002107D03*
X001270Y001241D03*
X003238Y003682D03*
X002553Y005650D03*
X006073Y005493D03*
D23*
X005561Y003252D02*
X005288Y003252D01*
X003006Y001312D02*
X003003Y001312D01*
X001883Y001312D02*
X001883Y001359D01*
X005209Y001182D02*
X005681Y001199D01*
X001317Y005343D02*
X001317Y005352D01*
M02*
