G75*
G70*
%OFA0B0*%
%FSLAX24Y24*%
%IPPOS*%
%LPD*%
%AMOC8*
5,1,8,0,0,1.08239X$1,22.5*
%
%ADD10C,0.0030*%
%ADD11C,0.0120*%
%ADD12C,0.0060*%
%ADD13C,0.0050*%
D10*
X002173Y001893D02*
X002112Y001955D01*
X002173Y001893D02*
X002297Y001893D01*
X002359Y001955D01*
X002359Y002079D01*
X002297Y002140D01*
X002235Y002140D01*
X002112Y002079D01*
X002112Y002264D01*
X002359Y002264D01*
X002480Y002202D02*
X002542Y002264D01*
X002665Y002264D01*
X002727Y002202D01*
X002480Y001955D01*
X002542Y001893D01*
X002665Y001893D01*
X002727Y001955D01*
X002727Y002202D01*
X002848Y002202D02*
X002910Y002264D01*
X003033Y002264D01*
X003095Y002202D01*
X002848Y001955D01*
X002910Y001893D01*
X003033Y001893D01*
X003095Y001955D01*
X003095Y002202D01*
X003217Y002264D02*
X003217Y001893D01*
X003217Y002017D02*
X003402Y001893D01*
X003217Y002017D02*
X003402Y002140D01*
X002848Y002202D02*
X002848Y001955D01*
X002480Y001955D02*
X002480Y002202D01*
X002936Y006060D02*
X003183Y006060D01*
X003059Y006060D02*
X003059Y006431D01*
X002936Y006307D01*
X003304Y006246D02*
X003428Y006307D01*
X003489Y006307D01*
X003551Y006246D01*
X003551Y006122D01*
X003489Y006060D01*
X003366Y006060D01*
X003304Y006122D01*
X003304Y006246D02*
X003304Y006431D01*
X003551Y006431D01*
X003673Y006369D02*
X003734Y006431D01*
X003858Y006431D01*
X003919Y006369D01*
X003673Y006122D01*
X003734Y006060D01*
X003858Y006060D01*
X003919Y006122D01*
X003919Y006369D01*
X003673Y006369D02*
X003673Y006122D01*
D11*
X003868Y005500D02*
X003868Y004792D01*
X004026Y004792D02*
X004026Y005500D01*
X002687Y005343D02*
X001979Y005343D01*
X001979Y005186D02*
X002687Y005186D01*
X006467Y003689D02*
X007097Y003689D01*
X007097Y003453D02*
X006467Y003453D01*
X002451Y001721D02*
X002451Y001406D01*
D12*
X003635Y001756D02*
X003946Y001756D01*
X003635Y001756D02*
X003635Y002089D01*
X004454Y001756D02*
X004755Y001756D01*
X004755Y002089D01*
X004707Y003244D02*
X004374Y003244D01*
X004707Y003244D02*
X004707Y003555D01*
X004707Y004063D02*
X004707Y004364D01*
X004374Y004364D01*
X002670Y003651D02*
X002337Y003651D01*
X002337Y003340D01*
X002337Y002832D02*
X002337Y002531D01*
X002670Y002531D01*
X007363Y002203D02*
X007363Y002003D01*
X007363Y002203D02*
X007563Y002203D01*
X008363Y002203D02*
X008563Y002203D01*
X008563Y002003D01*
X008563Y001203D02*
X008563Y001003D01*
X008363Y001003D01*
X007563Y001003D02*
X007363Y001003D01*
X007363Y001203D01*
X007298Y006593D02*
X007298Y006793D01*
X007298Y006593D02*
X007498Y006593D01*
X008298Y006593D02*
X008498Y006593D01*
X008498Y006793D01*
X008498Y007593D02*
X008498Y007793D01*
X008298Y007793D01*
X007498Y007793D02*
X007298Y007793D01*
X007298Y007593D01*
X006268Y007942D02*
X006268Y008142D01*
X006068Y008142D01*
X005268Y008142D02*
X005068Y008142D01*
X005068Y007942D01*
X004293Y007942D02*
X004293Y008142D01*
X004093Y008142D01*
X003293Y008142D02*
X003093Y008142D01*
X003093Y007942D01*
X003093Y007142D02*
X003093Y006942D01*
X003293Y006942D01*
X004093Y006942D02*
X004293Y006942D01*
X004293Y007142D01*
X005068Y007142D02*
X005068Y006942D01*
X005268Y006942D01*
X006068Y006942D02*
X006268Y006942D01*
X006268Y007142D01*
X002136Y007102D02*
X002136Y006902D01*
X001936Y006902D01*
X001136Y006902D02*
X000936Y006902D01*
X000936Y007102D01*
X000936Y007902D02*
X000936Y008102D01*
X001136Y008102D01*
X001936Y008102D02*
X002136Y008102D01*
X002136Y007902D01*
D13*
X007191Y005658D02*
X007287Y005658D01*
X007287Y005845D01*
X007287Y005658D02*
X007287Y005470D01*
X007287Y005658D02*
X007537Y005845D01*
X007537Y005658D01*
X007633Y005658D01*
X007537Y005658D02*
X007537Y005470D01*
X007287Y005658D01*
X007963Y003910D02*
X007963Y003814D01*
X007775Y003814D01*
X007963Y003564D01*
X007963Y003468D01*
X007963Y003564D02*
X007775Y003564D01*
X007963Y003564D02*
X008150Y003564D01*
X007963Y003564D02*
X008150Y003814D01*
X007963Y003814D01*
M02*
