G75*
G70*
%OFA0B0*%
%FSLAX24Y24*%
%IPPOS*%
%LPD*%
%AMOC8*
5,1,8,0,0,1.08239X$1,22.5*
%
%ADD10C,0.0060*%
%ADD11C,0.0050*%
D10*
X002337Y002209D02*
X002337Y002510D01*
X002337Y002209D02*
X002670Y002209D01*
X003478Y001688D02*
X003478Y001355D01*
X003789Y001355D01*
X004297Y001355D02*
X004598Y001355D01*
X004598Y001688D01*
X004550Y002685D02*
X004217Y002685D01*
X004550Y002685D02*
X004550Y002996D01*
X004550Y003504D02*
X004550Y003805D01*
X004217Y003805D01*
X002670Y003329D02*
X002337Y003329D01*
X002337Y003018D01*
X002214Y005793D02*
X002014Y005793D01*
X002214Y005793D02*
X002214Y005993D01*
X002857Y006032D02*
X002857Y005832D01*
X003057Y005832D01*
X003857Y005832D02*
X004057Y005832D01*
X004057Y006032D01*
X004674Y006032D02*
X004674Y005832D01*
X004874Y005832D01*
X005674Y005832D02*
X005874Y005832D01*
X005874Y006032D01*
X006589Y006247D02*
X006589Y006447D01*
X006789Y006447D01*
X007589Y006447D02*
X007789Y006447D01*
X007789Y006247D01*
X007789Y005447D02*
X007789Y005247D01*
X007589Y005247D01*
X006789Y005247D02*
X006589Y005247D01*
X006589Y005447D01*
X005874Y006832D02*
X005874Y007032D01*
X005674Y007032D01*
X004874Y007032D02*
X004674Y007032D01*
X004674Y006832D01*
X004057Y006832D02*
X004057Y007032D01*
X003857Y007032D01*
X003057Y007032D02*
X002857Y007032D01*
X002857Y006832D01*
X002214Y006793D02*
X002214Y006993D01*
X002014Y006993D01*
X001214Y006993D02*
X001014Y006993D01*
X001014Y006793D01*
X001014Y005993D02*
X001014Y005793D01*
X001214Y005793D01*
X006260Y002117D02*
X006460Y002117D01*
X006260Y002117D02*
X006260Y001917D01*
X007260Y002117D02*
X007460Y002117D01*
X007460Y001917D01*
X007460Y001117D02*
X007460Y000917D01*
X007260Y000917D01*
X006460Y000917D02*
X006260Y000917D01*
X006260Y001117D01*
D11*
X006972Y003494D02*
X007222Y003682D01*
X007318Y003682D01*
X007222Y003682D02*
X007222Y003494D01*
X006972Y003494D02*
X006972Y003682D01*
X006876Y003682D01*
X006972Y003682D02*
X006972Y003869D01*
X007222Y003682D01*
X007222Y003869D01*
X007222Y004518D02*
X007222Y004706D01*
X007318Y004706D01*
X007222Y004706D02*
X007222Y004893D01*
X006972Y004706D01*
X006876Y004706D01*
X006972Y004706D02*
X006972Y004893D01*
X006972Y004706D02*
X006972Y004518D01*
X006972Y004706D02*
X007222Y004518D01*
M02*
