G75*
G70*
%OFA0B0*%
%FSLAX24Y24*%
%IPPOS*%
%LPD*%
%AMOC8*
5,1,8,0,0,1.08239X$1,22.5*
%
%ADD10C,0.0000*%
%ADD11R,0.0551X0.0394*%
%ADD12R,0.0394X0.0551*%
%ADD13R,0.0710X0.0630*%
%ADD14R,0.0630X0.0710*%
%ADD15R,0.0630X0.0709*%
%ADD16R,0.0709X0.0630*%
%ADD17OC8,0.1250*%
%ADD18R,0.0591X0.0827*%
%ADD19R,0.0827X0.0591*%
%ADD20C,0.0400*%
%ADD21R,0.0436X0.0436*%
%ADD22C,0.0197*%
%ADD23C,0.0160*%
%ADD24C,0.0500*%
%ADD25C,0.0240*%
D10*
X000967Y000838D02*
X008464Y000839D01*
X008492Y000841D01*
X008520Y000846D01*
X008547Y000855D01*
X008573Y000867D01*
X008597Y000882D01*
X008619Y000900D01*
X008638Y000920D01*
X008655Y000943D01*
X008669Y000968D01*
X008679Y000994D01*
X008687Y001022D01*
X008690Y001050D01*
X008691Y001078D01*
X008691Y001079D02*
X008698Y007068D01*
X008708Y007131D01*
X008715Y007195D01*
X008717Y007258D01*
X008715Y007322D01*
X008710Y007386D01*
X008701Y007449D01*
X008688Y007511D01*
X008671Y007573D01*
X008651Y007633D01*
X008627Y007692D01*
X008599Y007750D01*
X008568Y007806D01*
X008534Y007859D01*
X008496Y007911D01*
X008456Y007960D01*
X008412Y008007D01*
X008366Y008051D01*
X008317Y008092D01*
X008266Y008130D01*
X008213Y008165D01*
X008158Y008196D01*
X008100Y008224D01*
X008042Y008249D01*
X007981Y008270D01*
X007920Y008287D01*
X007858Y008301D01*
X007857Y008301D02*
X001216Y008302D01*
X001215Y008302D02*
X001173Y008292D01*
X001132Y008279D01*
X001092Y008262D01*
X001053Y008242D01*
X001016Y008219D01*
X000982Y008193D01*
X000949Y008164D01*
X000919Y008132D01*
X000892Y008099D01*
X000868Y008063D01*
X000847Y008025D01*
X000829Y007985D01*
X000814Y007944D01*
X000803Y007903D01*
X000795Y007860D01*
X000791Y007817D01*
X000790Y007773D01*
X000793Y007730D01*
X000800Y007687D01*
X000792Y001012D01*
X000793Y001012D02*
X000795Y000987D01*
X000800Y000963D01*
X000808Y000940D01*
X000820Y000918D01*
X000835Y000898D01*
X000853Y000880D01*
X000873Y000865D01*
X000895Y000853D01*
X000918Y000845D01*
X000943Y000840D01*
X000968Y000838D01*
D11*
X003030Y002717D03*
X002164Y003091D03*
X003030Y003465D03*
X004014Y003430D03*
X004880Y003804D03*
X004014Y004178D03*
D12*
X003821Y002449D03*
X004569Y002449D03*
X004195Y001583D03*
D13*
X005681Y001364D03*
X005681Y002484D03*
X005797Y003574D03*
X005797Y004694D03*
X001333Y003474D03*
X001317Y004555D03*
X001317Y005674D03*
X001333Y002354D03*
D14*
X001883Y001319D03*
X003003Y001319D03*
X004541Y006146D03*
X005660Y006146D03*
D15*
X004518Y005162D03*
X003416Y005162D03*
D16*
X002317Y004721D03*
X002317Y005823D03*
X006797Y004134D03*
X006797Y003032D03*
D17*
X007963Y001603D03*
X007898Y007193D03*
X005668Y007542D03*
X003693Y007542D03*
X001536Y007502D03*
D18*
X006703Y005658D03*
X008120Y005658D03*
D19*
X007963Y004398D03*
X007963Y002981D03*
D20*
X007963Y001603D01*
X007569Y001364D01*
X005681Y001364D01*
X005679Y001206D01*
X004971Y001170D01*
X004183Y001189D01*
X004195Y001583D01*
X003821Y002449D02*
X003006Y001634D01*
X002609Y002272D02*
X002057Y002272D01*
X001490Y002351D01*
X001333Y002354D01*
X002164Y003091D02*
X001927Y003474D01*
X001333Y003474D01*
X001333Y004555D01*
X001317Y004563D02*
X002317Y004721D01*
X003081Y004241D02*
X003238Y004532D01*
X003416Y005162D01*
X003652Y005416D01*
X003693Y007542D01*
X002396Y006603D02*
X002317Y005823D01*
X002317Y005737D01*
X001270Y005737D01*
X001270Y005666D01*
X001317Y005666D01*
X001317Y005674D02*
X001317Y007187D01*
X001536Y007502D01*
X004541Y006146D02*
X004518Y005280D01*
X004518Y005162D01*
X004183Y004335D02*
X005207Y004398D01*
X005561Y004556D01*
X005797Y004694D01*
X005621Y005049D01*
X005660Y006146D01*
X005660Y007148D01*
X005668Y007542D01*
X006703Y005658D02*
X006797Y005579D01*
X006797Y004134D01*
X005681Y003496D02*
X005681Y003032D01*
X005681Y002484D01*
X005681Y003032D02*
X006797Y003032D01*
X005561Y003804D02*
X004880Y003804D01*
X004097Y003465D02*
X004569Y002449D01*
X004097Y003465D02*
X003030Y003465D01*
X003030Y002717D02*
X003081Y002717D01*
X002609Y002272D01*
X001883Y001319D02*
X001664Y001319D01*
X001191Y001170D01*
X004014Y004178D02*
X004183Y004335D01*
X007963Y004398D02*
X008042Y005264D01*
X008120Y005658D01*
D21*
X003081Y004241D03*
X002057Y002272D03*
X001191Y001170D03*
X004971Y001170D03*
X002396Y006603D03*
D22*
X001317Y004563D02*
X001317Y004555D01*
X001333Y004555D01*
X005561Y003804D02*
X005797Y003574D01*
X005561Y003701D01*
D23*
X005681Y003496D02*
X005797Y003574D01*
X003006Y001634D02*
X003003Y001319D01*
X001317Y005666D02*
X001317Y005674D01*
D24*
X006703Y005658D02*
X007097Y006327D01*
X007898Y007193D01*
D25*
X001317Y005674D02*
X001216Y005776D01*
M02*
